<svg id="Calque_1" data-name="Calque 1" xmlns="http://www.w3.org/2000/svg" viewBox="0 0 69 69">
  <defs>
    <style>
      .cls-1 {
        fill: none;
      }

      .cls-2 {
        fill: #5c39fb;
      }
    </style>
  </defs>
  <g id="build-24px">
    <path id="Tracé_14" data-name="Tracé 14" class="cls-1" d="M722,304.62h69v69H722Z" transform="translate(-721.95 -304.62)"/>
    <path id="Tracé_15" data-name="Tracé 15" class="cls-2" d="M787,359.21l-26.1-26.1a18.68,18.68,0,0,0-28.38-22l11,11.06-4.08,4.06-11-11a18.66,18.66,0,0,0,21.67,28.46l26.2,26.19a2.87,2.87,0,0,0,4.05,0h0l6.61-6.61a2.81,2.81,0,0,0,.08-4Zm-8.62,4.6-27.2-27.2a12.51,12.51,0,0,1-5.75,2.36,12.9,12.9,0,0,1-14.68-10.83,12.37,12.37,0,0,1-.13-2.65l8.89,8.88,12.19-12.19-8.89-8.88a12.9,12.9,0,0,1,13.46,15.15,12.56,12.56,0,0,1-2.53,5.64l27.17,27.17Z" transform="translate(-721.95 -304.62)"/>
  </g>
</svg>
