<svg id="Calque_1" data-name="Calque 1" xmlns="http://www.w3.org/2000/svg" viewBox="0 0 69 69">
  <defs>
    <style>
      .cls-1 {
        fill: none;
      }

      .cls-2 {
        fill: #5c39fb;
      }
    </style>
  </defs>
  <g id="alarm-24px-2">
    <path id="Tracé_16" data-name="Tracé 16" class="cls-1" d="M958.45,505h69v69h-69Z" transform="translate(-958.45 -505.02)"/>
    <path id="Tracé_17" data-name="Tracé 17" class="cls-2" d="M1004.07,548.86l-9.68-5.75v-13a2.07,2.07,0,0,0-2.06-2.07h-.19a2.06,2.06,0,0,0-2.07,2.05v13.59a2.84,2.84,0,0,0,1.41,2.47l10.5,6.3a2.07,2.07,0,1,0,2.1-3.56h0Zm15.27-29.44-8.85-7.36a2.88,2.88,0,0,0-3.68,4.43l8.82,7.36a2.89,2.89,0,0,0,3.71-4.43Zm-49.1,4.43,8.83-7.36a2.87,2.87,0,0,0-3.65-4.43h0l-8.86,7.36a2.87,2.87,0,0,0-.35,4.06h0a2.84,2.84,0,0,0,4,.39l0,0ZM993,516.52a25.88,25.88,0,1,0,25.87,25.88A25.88,25.88,0,0,0,993,516.52Zm0,46a20.13,20.13,0,1,1,20.12-20.12A20.12,20.12,0,0,1,993,562.52Z" transform="translate(-958.45 -505.02)"/>
  </g>
</svg>
