<?xml version="1.0"?>
<svg xmlns="http://www.w3.org/2000/svg" viewBox="0 0 64 64" width="512" height="512"><g id="File_system" data-name="File system"><path d="M61.964,31.734,54.369,4.2A3.009,3.009,0,0,0,51.477,2H12.523A3.009,3.009,0,0,0,9.631,4.2l-7.6,27.532A1,1,0,0,0,2,32V57a5.006,5.006,0,0,0,5,5H57a5.006,5.006,0,0,0,5-5V32A1,1,0,0,0,61.964,31.734Zm-50.4-27A1,1,0,0,1,12.523,4H51.477a1,1,0,0,1,.964.734L59.687,31H4.313ZM57,60H7a3,3,0,0,1-3-3V33H60V57A3,3,0,0,1,57,60Z"/><path d="M7.458,28.606a1,1,0,0,0,.8.394H55.747a1,1,0,0,0,.964-1.266l-5.793-21A1,1,0,0,0,49.954,6H14.046a1,1,0,0,0-.964.734l-5.793,21A1,1,0,0,0,7.458,28.606ZM9.566,27l1.379-5h42.11l1.379,5Zm3.31-12H51.124L52.5,20H11.5Zm1.932-7H49.192l1.38,5H13.428Z"/><path d="M39.613,37H24.387a2,2,0,0,0-1.9,2.632L23.6,42.949A3,3,0,0,0,26.441,45H37.559a3,3,0,0,0,2.846-2.052l1.1-3.315A2,2,0,0,0,39.613,37Zm-1.106,5.316a1,1,0,0,1-.948.684H26.441a1,1,0,0,1-.948-.684L24.387,39H39.612Z"/></g></svg>
