<?xml version="1.0" encoding="utf-8"?>
<!-- Generator: Adobe Illustrator 24.3.0, SVG Export Plug-In . SVG Version: 6.00 Build 0)  -->
<svg version="1.1" id="Calque_1" xmlns="http://www.w3.org/2000/svg" xmlns:xlink="http://www.w3.org/1999/xlink" x="0px" y="0px"
	 viewBox="0 0 315.5 155.1" style="enable-background:new 0 0 315.5 155.1;" xml:space="preserve">
<style type="text/css">
	.st0{fill:url(#SVGID_1_);}
	.st1{fill:#ECFEFA;}
	.st2{fill:none;stroke:#ECFEFA;stroke-width:2;stroke-miterlimit:10;}
	.st3{fill:url(#SVGID_2_);}
</style>
<g>
	
		<image style="overflow:visible;opacity:0.5;enable-background:new    ;" width="322" height="311" xlink:href="BAA2A8896BCE9A50.png"  transform="matrix(0.9968 0 0 0.9968 -68.5269 -60.4042)">
	</image>
	<g>
		
			<linearGradient id="SVGID_1_" gradientUnits="userSpaceOnUse" x1="-661.9211" y1="1051.4847" x2="-662.1711" y2="1051.1248" gradientTransform="matrix(-111.62 202.31 202.31 111.62 -286490.5 16742.8418)">
			<stop  offset="0" style="stop-color:#76EEB1"/>
			<stop  offset="1" style="stop-color:#2DE47E"/>
		</linearGradient>
		<path class="st0" d="M163.9,90.4L0,0v155.1h135.7l30.8-55.8C168.2,96.2,167.1,92.2,163.9,90.4L163.9,90.4z"/>
	</g>
</g>
<g id="Groupe_10">
	<g id="Calque_2_1_">
		<circle id="Ellipse_105" class="st1" cx="62.2" cy="143.8" r="3"/>
		<circle id="Ellipse_106" class="st1" cx="72.2" cy="57.3" r="1.8"/>
		<circle id="Ellipse_107" class="st1" cx="32.1" cy="44.8" r="1.8"/>
		<circle id="Ellipse_108" class="st1" cx="3" cy="33.4" r="2.4"/>
	</g>
	<g id="Calque_3">
		<path class="st2" d="M12.2,151.6c-2.7-1.7-5.4-3.3-8.2-4.9"/>
		<path class="st2" d="M74.7,151.6c-1-0.8-2-0.8-2-1.8c-2-10-4-20-8-29c-2-2-4-4-7.1-5"/>
		<path class="st2" d="M56.3,151.5c-2.7,0.3-3.7-1.7-5.7-3.7h-2c-3-2-1-7-3-10c-13-11-28-17-41.6-25"/>
		<path class="st2" d="M42.8,151.5c-12.7-7.8-25.7-15.3-38.7-22.7"/>
		<path class="st2" d="M32.2,153.5c-9.6-5.7-18.6-10.7-28.1-16.2"/>
		<path class="st2" d="M43.7,127.6c-13.1-7.8-26.1-15.8-39.7-22.9"/>
		<path id="Tracé_81" class="st2" d="M13.9,110.4L39.5,66l0,0l30.9-8.3L39.5,66"/>
		<path class="st2" d="M38.5,142.4L15.3,129l-11.2-6.5"/>
		<line id="Ligne_24" class="st2" x1="35.8" y1="109.4" x2="60.6" y2="141.9"/>
		<line id="Ligne_25" class="st2" x1="32.1" y1="44.8" x2="39.5" y2="66"/>
		<path id="Tracé_83" class="st2" d="M29.9,80.1L9,68.1L3.2,34.9"/>
		<path class="st2" d="M4.2,75.7l8.7,5L4,96"/>
		<circle id="Ellipse_122" class="st2" cx="55.6" cy="114.8" r="2.5"/>
		<circle id="Ellipse_124" class="st2" cx="34.2" cy="107.2" r="3"/>
		<circle id="Ellipse_126" class="st2" cx="66.1" cy="81.4" r="2.6"/>
	</g>
</g>
<g>
	
		<image style="overflow:visible;opacity:0.5;enable-background:new    ;" width="413" height="272" xlink:href="BAA2A8896BCE9A51.png"  transform="matrix(0.9972 0 0 0.9972 -68.457 -21.5145)">
	</image>
	<g>
		
			<linearGradient id="SVGID_2_" gradientUnits="userSpaceOnUse" x1="-656.52" y1="1047.964" x2="-655.01" y2="1047.394" gradientTransform="matrix(130.04 192.79 192.79 -130.04 -116548.7344 262941.9688)">
			<stop  offset="0" style="stop-color:#5C39FB"/>
			<stop  offset="1" style="stop-color:#9354AA"/>
		</linearGradient>
		<path class="st3" d="M0,155.1h257.6l-76.9-114c-2-3-6.2-3.8-9.2-1.8L0,155.1L0,155.1z"/>
	</g>
</g>
<g id="Groupe_11">
	<g id="Calque_2-2">
		<circle id="Ellipse_73" class="st1" cx="194.7" cy="149" r="3"/>
		<circle id="Ellipse_74" class="st1" cx="121.3" cy="102.2" r="1.8"/>
		<circle id="Ellipse_75" class="st1" cx="92.6" cy="132.7" r="1.9"/>
		<path class="st1" d="M71.5,155.1c0.7-1.1,0.4-2.5-0.6-3.3s-2.5-0.4-3.3,0.6c-0.5,0.8-0.5,1.8,0,2.6L71.5,155.1L71.5,155.1z"/>
	</g>
	<g id="Calque_3-2">
		<path class="st2" d="M253.9,149.5c-7,5,3.7-2.7-3,2.1"/>
		<path class="st2" d="M248.7,142l-14.1,9.5"/>
		<path id="Tracé_58_3_" class="st2" d="M235.4,122.2l-29.6,20l-31.1-6l-7.2,4.9"/>
		<path class="st2" d="M240.1,130.1c-13.3,9-18.5,11.7-31.6,21.3"/>
		<path class="st2" d="M244,135c-16.7,11.6-7.4,3.8-23.6,16.5"/>
		<path class="st2" d="M125.7,151.4c-3.1-5.6-7.1-10.6-11.1-15.6c3-10,3-21,6.4-31.9l0,0c-1.4,10.6-3.4,21.1-6.1,31.5"/>
		<path class="st2" d="M183,151.5l9.3-1.9"/>
		<line id="Ligne_18" class="st2" x1="92.6" y1="132.7" x2="114.9" y2="135.4"/>
		<circle id="Ellipse_90" class="st2" cx="165.8" cy="142.3" r="2.5"/>
		<circle id="Ellipse_94" class="st2" cx="140.4" cy="118.2" r="2.6"/>
	</g>
</g>
</svg>
