<?xml version="1.0" encoding="utf-8"?>
<!-- Generator: Adobe Illustrator 24.3.0, SVG Export Plug-In . SVG Version: 6.00 Build 0)  -->
<svg version="1.1" id="Capa_1" xmlns="http://www.w3.org/2000/svg" xmlns:xlink="http://www.w3.org/1999/xlink" x="0px" y="0px"
	 viewBox="0 0 477.9 477.9" style="enable-background:new 0 0 477.9 477.9;" xml:space="preserve">
<style type="text/css">
	.st0{fill:#FFFFFF;}
</style>
<g>
	<g>
		<path class="st0" d="M409.6,170.7h-17.1v-17.1C392.4,68.8,323.7,0.1,238.9,0C154.1,0.1,85.4,68.8,85.3,153.6v17.1H68.3
			c-9.4,0-17.1,7.6-17.1,17.1v273.1c0,9.4,7.6,17.1,17.1,17.1h341.3c9.4,0,17.1-7.6,17.1-17.1V187.7
			C426.7,178.3,419,170.7,409.6,170.7z M119.5,153.6c0-66,53.5-119.5,119.5-119.5s119.5,53.5,119.5,119.5v17.1H119.5V153.6z
			 M392.5,443.7H85.3V204.8h307.2V443.7z"/>
	</g>
</g>
<g>
	<g>
		<path class="st0" d="M287.2,290.1c-7.2-20.5-26.6-34.2-48.3-34.1c-28.2-0.1-51.1,22.8-51.2,51c0,21.7,13.6,41.1,34.1,48.3v37.3
			c0,9.4,7.6,17.1,17.1,17.1S256,402,256,392.5v-37.3C282.6,345.9,296.6,316.7,287.2,290.1z M238.9,324.3c-9.4,0-17.1-7.6-17.1-17.1
			s7.6-17.1,17.1-17.1s17.1,7.6,17.1,17.1S248.4,324.3,238.9,324.3z"/>
	</g>
</g>
</svg>
