<svg id="Calque_1" data-name="Calque 1" xmlns="http://www.w3.org/2000/svg" viewBox="0 0 553.33 138.62">
  <defs>
    <style>
      .cls-1 {
        fill: none;
        stroke: #2de47e;
        stroke-miterlimit: 10;
        stroke-width: 3px;
      }

      .cls-2 {
        fill: #434c50;
      }
    </style>
  </defs>
  <g>
    <polyline class="cls-1" points="0 83.63 55.19 83.63 199.99 83.63 208.62 63.17 225.94 131.54 248.24 8.28 267.21 109.39 277.08 62.41 284.24 84.84 513.29 84.84 553.32 84.84"/>
    <g>
      <path class="cls-2" d="M174.8,340h-9.59v21.38h-12V303h21.7q10.35,0,16,4.61t5.62,13a17.91,17.91,0,0,1-2.59,10A17.59,17.59,0,0,1,186,337l12.64,23.87v.56H185.75Zm-9.59-9.75h9.71c3,0,5.36-.76,7-2.3a8.25,8.25,0,0,0,2.49-6.36,8.86,8.86,0,0,0-2.35-6.5c-1.56-1.58-4-2.36-7.2-2.36h-9.67Z" transform="translate(-139.61 -294.33)"/>
      <path class="cls-2" d="M263.77,342q-.67,9.42-7,14.84t-16.54,5.41q-11.24,0-17.67-7.56t-6.44-20.76v-3.57a35,35,0,0,1,3-14.84,22.28,22.28,0,0,1,8.48-9.84,23.75,23.75,0,0,1,12.82-3.43q10.11,0,16.28,5.41t7.14,15.2h-12c-.3-3.77-1.34-6.5-3.15-8.2s-4.55-2.55-8.24-2.55q-6,0-9,4.32t-3.06,13.37v4.41q0,9.46,2.86,13.84t9.05,4.37c3.71,0,6.49-.84,8.32-2.54s2.88-4.33,3.15-7.88Z" transform="translate(-139.61 -294.33)"/>
      <path class="cls-2" d="M296,340.84v20.58H284V303h22.78a26.29,26.29,0,0,1,11.57,2.41,17.7,17.7,0,0,1,7.68,6.83,19.11,19.11,0,0,1,2.69,10.09q0,8.58-5.88,13.54t-16.26,4.95Zm0-9.74h10.75q4.77,0,7.28-2.25a8.18,8.18,0,0,0,2.5-6.42,9.66,9.66,0,0,0-2.52-6.94,9.45,9.45,0,0,0-7-2.72H296Z" transform="translate(-139.61 -294.33)"/>
    </g>
    <g>
      <path class="cls-2" d="M443.89,416.71H430v11.38h16.18v3.47H425.73V399.43h20.2v3.46H430v10.35h13.92Z" transform="translate(-139.61 -294.33)"/>
      <path class="cls-2" d="M463.35,431.56h-4.08v-33.9h4.08Z" transform="translate(-139.61 -294.33)"/>
      <path class="cls-2" d="M487.93,432a10.41,10.41,0,0,1-7.9-3.19,11.85,11.85,0,0,1-3-8.53v-.75a14.37,14.37,0,0,1,1.36-6.34,10.53,10.53,0,0,1,3.8-4.37,9.45,9.45,0,0,1,5.28-1.58,8.92,8.92,0,0,1,7.24,3.07q2.58,3.06,2.58,8.78v1.7H481.07a8.42,8.42,0,0,0,2.06,5.7,6.49,6.49,0,0,0,5,2.18,7.09,7.09,0,0,0,3.66-.89,9.07,9.07,0,0,0,2.63-2.33l2.49,1.94A10,10,0,0,1,487.93,432Zm-.51-21.41a5.45,5.45,0,0,0-4.15,1.8,8.7,8.7,0,0,0-2.07,5h12v-.3a7.8,7.8,0,0,0-1.68-4.83A5.12,5.12,0,0,0,487.42,410.59Z" transform="translate(-139.61 -294.33)"/>
      <path class="cls-2" d="M519.68,428.67a5.87,5.87,0,0,0,3.82-1.33,4.68,4.68,0,0,0,1.81-3.31h3.86a7.54,7.54,0,0,1-1.41,3.91,9.43,9.43,0,0,1-3.48,3,10.09,10.09,0,0,1-4.6,1.1,9.82,9.82,0,0,1-7.76-3.26c-1.92-2.17-2.88-5.13-2.88-8.9v-.68a14.45,14.45,0,0,1,1.28-6.21,9.7,9.7,0,0,1,3.68-4.21,10.42,10.42,0,0,1,5.66-1.5,9.58,9.58,0,0,1,6.67,2.4,8.64,8.64,0,0,1,2.84,6.25h-3.86a5.66,5.66,0,0,0-1.76-3.81,5.46,5.46,0,0,0-3.89-1.49,5.73,5.73,0,0,0-4.83,2.24,10.55,10.55,0,0,0-1.71,6.48v.77a10.35,10.35,0,0,0,1.7,6.36A5.77,5.77,0,0,0,519.68,428.67Z" transform="translate(-139.61 -294.33)"/>
      <path class="cls-2" d="M547.43,401.9v5.78h4.46v3.16h-4.46v14.82a3.31,3.31,0,0,0,.6,2.16,2.5,2.5,0,0,0,2,.72,9.66,9.66,0,0,0,1.94-.27v3.29a12,12,0,0,1-3.13.44,5.07,5.07,0,0,1-4.13-1.66,7.09,7.09,0,0,1-1.39-4.7v-14.8H539v-3.16h4.35V401.9Z" transform="translate(-139.61 -294.33)"/>
      <path class="cls-2" d="M576.33,411.34a12.42,12.42,0,0,0-2-.15,5.37,5.37,0,0,0-5.45,3.42v16.95h-4.09V407.68h4l.06,2.76a6.37,6.37,0,0,1,5.7-3.2,4.07,4.07,0,0,1,1.8.31Z" transform="translate(-139.61 -294.33)"/>
      <path class="cls-2" d="M586.7,419.4a14.09,14.09,0,0,1,1.38-6.31,10.33,10.33,0,0,1,3.84-4.33,10.49,10.49,0,0,1,5.62-1.52,10,10,0,0,1,7.89,3.38,13,13,0,0,1,3,9v.28a14.24,14.24,0,0,1-1.34,6.26,10,10,0,0,1-3.82,4.31,10.46,10.46,0,0,1-5.7,1.55,10.05,10.05,0,0,1-7.87-3.38,12.91,12.91,0,0,1-3-8.93Zm4.1.48a10.2,10.2,0,0,0,1.85,6.38,6.23,6.23,0,0,0,9.87,0,11.18,11.18,0,0,0,1.83-6.83,10.23,10.23,0,0,0-1.86-6.37,5.93,5.93,0,0,0-5-2.44,5.84,5.84,0,0,0-4.88,2.41C591.42,414.6,590.8,416.9,590.8,419.88Z" transform="translate(-139.61 -294.33)"/>
      <path class="cls-2" d="M625.56,407.68l.13,3a8.71,8.71,0,0,1,7.15-3.44q7.56,0,7.63,8.54v15.78h-4.08v-15.8a5.49,5.49,0,0,0-1.18-3.82,4.74,4.74,0,0,0-3.61-1.24,5.92,5.92,0,0,0-3.48,1.06,7.2,7.2,0,0,0-2.34,2.78v17h-4.09V407.68Z" transform="translate(-139.61 -294.33)"/>
      <path class="cls-2" d="M654.79,401.35a2.41,2.41,0,0,1,.61-1.68,2.25,2.25,0,0,1,1.79-.69,2.29,2.29,0,0,1,1.81.69,2.38,2.38,0,0,1,.62,1.68A2.29,2.29,0,0,1,659,403a2.35,2.35,0,0,1-1.81.66,2.19,2.19,0,0,1-2.4-2.31Zm4.41,30.21h-4.08V407.68h4.08Z" transform="translate(-139.61 -294.33)"/>
      <path class="cls-2" d="M683.45,428.67a5.85,5.85,0,0,0,3.82-1.33,4.65,4.65,0,0,0,1.81-3.31h3.86a7.54,7.54,0,0,1-1.41,3.91,9.43,9.43,0,0,1-3.48,3,10.09,10.09,0,0,1-4.6,1.1,9.82,9.82,0,0,1-7.76-3.26c-1.92-2.17-2.88-5.13-2.88-8.9v-.68a14.45,14.45,0,0,1,1.28-6.21,9.7,9.7,0,0,1,3.68-4.21,10.42,10.42,0,0,1,5.66-1.5,9.58,9.58,0,0,1,6.67,2.4,8.6,8.6,0,0,1,2.84,6.25h-3.86a5.66,5.66,0,0,0-1.76-3.81,5.46,5.46,0,0,0-3.89-1.49,5.73,5.73,0,0,0-4.83,2.24,10.55,10.55,0,0,0-1.71,6.48v.77a10.35,10.35,0,0,0,1.7,6.36A5.77,5.77,0,0,0,683.45,428.67Z" transform="translate(-139.61 -294.33)"/>
    </g>
  </g>
</svg>
