<svg id="Calque_1" data-name="Calque 1" xmlns="http://www.w3.org/2000/svg" viewBox="0 0 908.19 217.89">
  <defs>
    <style>
      .cls-1 {
        fill: none;
        stroke: #2de47e;
        stroke-miterlimit: 10;
        stroke-width: 2px;
      }

      .cls-2 {
        fill: #fafafa;
      }
    </style>
  </defs>
  <g>
    <polyline class="cls-1" points="0 129.19 90.59 129.19 328.24 129.19 342.41 95.61 370.83 207.83 407.44 5.52 438.58 171.48 454.77 94.37 466.53 131.19 842.47 131.19 908.17 131.19"/>
    <g>
      <path class="cls-2" d="M563.85,498.42H548.12v35.09H528.37V437.66H564q17,0,26.2,7.57t9.21,21.4q0,9.8-4.24,16.35t-12.87,10.44L603,532.59v.92H581.83Zm-15.73-16h15.93q7.44,0,11.52-3.78t4.08-10.44q0-6.76-3.85-10.66T564,453.66H548.12Z" transform="translate(-506.09 -431.46)"/>
      <path class="cls-2" d="M709.88,501.58q-1.11,15.48-11.42,24.36t-27.15,8.89q-18.43,0-29-12.41t-10.57-34.07v-5.86q0-13.83,4.87-24.36A36.49,36.49,0,0,1,650.54,442a39,39,0,0,1,21-5.63q16.59,0,26.73,8.89T710,470.18H690.26q-.72-9.29-5.16-13.46c-3-2.79-7.47-4.18-13.53-4.18q-9.87,0-14.78,7.07t-5,22v7.24q0,15.54,4.71,22.71t14.85,7.18q9.13,0,13.66-4.18t5.16-12.94Z" transform="translate(-506.09 -431.46)"/>
      <path class="cls-2" d="M762.83,499.74v33.77H743.08V437.66h37.39a43.28,43.28,0,0,1,19,3.95,29,29,0,0,1,12.61,11.22,31.31,31.31,0,0,1,4.41,16.56q0,14.08-9.65,22.22t-26.69,8.13Zm0-16h17.64q7.83,0,11.95-3.69t4.11-10.53q0-7-4.15-11.39c-2.76-2.89-6.58-4.39-11.45-4.47h-18.1Z" transform="translate(-506.09 -431.46)"/>
    </g>
    <g>
      <path class="cls-2" d="M1005.52,624.25H982.66v18.69h26.55v5.69h-33.5V595.89h33.14v5.69H982.66v17h22.86Z" transform="translate(-506.09 -431.46)"/>
      <path class="cls-2" d="M1037.45,648.63h-6.7V593h6.7Z" transform="translate(-506.09 -431.46)"/>
      <path class="cls-2" d="M1077.79,649.36a17.15,17.15,0,0,1-13-5.24q-5-5.24-5-14v-1.23a23.55,23.55,0,0,1,2.22-10.41,17.48,17.48,0,0,1,6.23-7.18,15.71,15.71,0,0,1,8.68-2.58q7.63,0,11.88,5t4.24,14.42V631h-26.55a13.9,13.9,0,0,0,3.38,9.36,10.64,10.64,0,0,0,8.24,3.57,11.77,11.77,0,0,0,6-1.45,15.23,15.23,0,0,0,4.31-3.84l4.09,3.19Q1087.65,649.35,1077.79,649.36Zm-.83-35.14a8.91,8.91,0,0,0-6.81,2.95,14.37,14.37,0,0,0-3.41,8.28h19.64v-.51c-.2-3.4-1.11-6-2.76-7.91A8.41,8.41,0,0,0,1077,614.22Z" transform="translate(-506.09 -431.46)"/>
      <path class="cls-2" d="M1129.9,643.89a9.67,9.67,0,0,0,6.27-2.18,7.66,7.66,0,0,0,3-5.43h6.34a12.18,12.18,0,0,1-2.32,6.41,15.22,15.22,0,0,1-5.71,4.85,16.39,16.39,0,0,1-7.55,1.82q-8,0-12.73-5.35t-4.73-14.61v-1.13a23.58,23.58,0,0,1,2.1-10.17,16,16,0,0,1,6-6.92,17.17,17.17,0,0,1,9.3-2.46,15.71,15.71,0,0,1,11,3.94,14.16,14.16,0,0,1,4.66,10.25h-6.34a9.29,9.29,0,0,0-2.88-6.24,9,9,0,0,0-6.39-2.45,9.39,9.39,0,0,0-7.92,3.68q-2.81,3.68-2.81,10.63v1.27q0,6.76,2.79,10.43A9.43,9.43,0,0,0,1129.9,643.89Z" transform="translate(-506.09 -431.46)"/>
      <path class="cls-2" d="M1175.46,600v9.49h7.31v5.18h-7.31V639a5.46,5.46,0,0,0,1,3.54,4.13,4.13,0,0,0,3.34,1.18,16.23,16.23,0,0,0,3.18-.44v5.41a19.48,19.48,0,0,1-5.14.72q-4.49,0-6.77-2.72t-2.28-7.72v-24.3h-7.14v-5.18h7.14V600Z" transform="translate(-506.09 -431.46)"/>
      <path class="cls-2" d="M1222.89,615.45a19.91,19.91,0,0,0-3.29-.25q-6.6,0-8.95,5.61v27.82H1204V609.44h6.52l.11,4.53a10.42,10.42,0,0,1,9.34-5.25,6.79,6.79,0,0,1,3,.5Z" transform="translate(-506.09 -431.46)"/>
      <path class="cls-2" d="M1239.9,628.67a23.15,23.15,0,0,1,2.27-10.36,17,17,0,0,1,6.3-7.1,17.21,17.21,0,0,1,9.22-2.49,16.51,16.51,0,0,1,13,5.54q4.93,5.54,4.94,14.74v.47a23.35,23.35,0,0,1-2.19,10.27,16.66,16.66,0,0,1-6.26,7.08,17.38,17.38,0,0,1-9.37,2.54,16.48,16.48,0,0,1-12.91-5.55q-4.95-5.53-4.95-14.67Zm6.74.8q0,6.53,3,10.47a10.24,10.24,0,0,0,16.21-.06q3-4,3-11.21,0-6.43-3.06-10.45a10.18,10.18,0,0,0-16.14-.05Q1246.65,622.12,1246.64,629.47Z" transform="translate(-506.09 -431.46)"/>
      <path class="cls-2" d="M1303.68,609.44l.22,4.93a14.26,14.26,0,0,1,11.73-5.65q12.42,0,12.53,14v25.9h-6.7V622.7c0-2.83-.67-4.92-1.93-6.27s-3.25-2-5.93-2a9.66,9.66,0,0,0-5.72,1.74,11.87,11.87,0,0,0-3.84,4.56v27.93h-6.7V609.44Z" transform="translate(-506.09 -431.46)"/>
      <path class="cls-2" d="M1351.66,599a4,4,0,0,1,1-2.75,3.72,3.72,0,0,1,2.95-1.12,3.8,3.8,0,0,1,3,1.12,4,4,0,0,1,1,2.75,3.85,3.85,0,0,1-1,2.72,3.9,3.9,0,0,1-3,1.09,3.61,3.61,0,0,1-3.95-3.81Zm7.24,49.59h-6.7V609.44h6.7Z" transform="translate(-506.09 -431.46)"/>
      <path class="cls-2" d="M1398.7,643.89a9.67,9.67,0,0,0,6.27-2.18,7.7,7.7,0,0,0,3-5.43h6.33a12.16,12.16,0,0,1-2.31,6.41,15.22,15.22,0,0,1-5.71,4.85,16.45,16.45,0,0,1-7.55,1.82q-8,0-12.73-5.35t-4.73-14.61v-1.13a23.58,23.58,0,0,1,2.1-10.17,16,16,0,0,1,6-6.92,17.15,17.15,0,0,1,9.29-2.46,15.72,15.72,0,0,1,11,3.94,14.11,14.11,0,0,1,4.65,10.25h-6.33a9.29,9.29,0,0,0-2.88-6.24,9,9,0,0,0-6.4-2.45,9.38,9.38,0,0,0-7.91,3.68q-2.8,3.68-2.81,10.63v1.27q0,6.76,2.79,10.43A9.43,9.43,0,0,0,1398.7,643.89Z" transform="translate(-506.09 -431.46)"/>
    </g>
  </g>
</svg>
