<svg id="Calque_1" data-name="Calque 1" xmlns="http://www.w3.org/2000/svg" viewBox="0 0 31 31">
  <defs>
    <style>
      .cls-1 {
        fill: none;
      }

      .cls-2 {
        fill: #434c50;
      }
    </style>
  </defs>
  <g id="call-24px">
    <path id="Tracé_6" data-name="Tracé 6" class="cls-1" d="M1226.26,432h31v31h-31Z" transform="translate(-1226.26 -432.02)"/>
    <path id="Tracé_7" data-name="Tracé 7" class="cls-2" d="M1234.71,438.48a15.79,15.79,0,0,0,.58,3.34l-1.55,1.55a19.48,19.48,0,0,1-1-4.9h2M1247.44,454a16.09,16.09,0,0,0,3.36.58v1.93a20.07,20.07,0,0,1-4.91-1l1.55-1.54M1236,435.89h-4.52a1.3,1.3,0,0,0-1.29,1.3,22,22,0,0,0,21.95,21.95h0a1.3,1.3,0,0,0,1.3-1.29v-4.51a1.31,1.31,0,0,0-1.3-1.29,15.06,15.06,0,0,1-4.61-.73,1.05,1.05,0,0,0-.4-.07,1.3,1.3,0,0,0-.91.38l-2.85,2.84a19.6,19.6,0,0,1-8.51-8.51l2.84-2.85a1.29,1.29,0,0,0,.33-1.32,14.67,14.67,0,0,1-.74-4.6A1.32,1.32,0,0,0,1236,435.89Z" transform="translate(-1226.26 -432.02)"/>
  </g>
</svg>
