<svg id="Calque_1" data-name="Calque 1" xmlns="http://www.w3.org/2000/svg" viewBox="0 0 24.91 29.09">
  <defs>
    <style>
      .cls-1 {
        fill: none;
      }

      .cls-2 {
        fill: #434c50;
      }
    </style>
  </defs>
  <g id="place-24px">
    <path id="Tracé_8" data-name="Tracé 8" class="cls-1" d="M1229.06,460.13H1254v29.09h-24.91Z" transform="translate(-1229.06 -460.13)"/>
    <path id="Tracé_9" data-name="Tracé 9" class="cls-2" d="M1241.51,474.68a2.8,2.8,0,1,1,2.84-2.8A2.84,2.84,0,0,1,1241.51,474.68Zm8.51-2.52a8.38,8.38,0,0,0-8.09-8.67h-.42a8.38,8.38,0,0,0-8.51,8.25c0,.14,0,.28,0,.42,0,3.27,2.76,7.61,8.5,12.79,5.74-5.18,8.51-9.52,8.51-12.79Zm-8.51-11.47a11.19,11.19,0,0,1,11.34,11.05,2.94,2.94,0,0,1,0,.42q0,7-11.34,16.51-11.33-9.56-11.34-16.51a11.2,11.2,0,0,1,10.92-11.47Z" transform="translate(-1229.06 -460.13)"/>
  </g>
</svg>
