<svg id="Calque_1" data-name="Calque 1" xmlns="http://www.w3.org/2000/svg" viewBox="0 0 85 85">
  <defs>
    <style>
      .cls-1 {
        fill: none;
      }

      .cls-2 {
        fill: #5c39fb;
      }
    </style>
  </defs>
  <g id="hourglass_empty-24px-3" data-name="hourglass empty-24px-3">
    <path id="Tracé_12" data-name="Tracé 12" class="cls-1" d="M910,270.71h85v85H910Z" transform="translate(-909.95 -270.71)"/>
    <path id="Tracé_13" data-name="Tracé 13" class="cls-2" d="M938.28,277.8a7.09,7.09,0,0,0-7.08,7.08v11.23a7.12,7.12,0,0,0,2.09,5l12.08,12.07-12.12,12.12a7.18,7.18,0,0,0-2,5v11.2a7.1,7.1,0,0,0,7.08,7.08h28.34a7.11,7.11,0,0,0,7.08-7.08v-11.2a7.08,7.08,0,0,0-2.06-5l-12.11-12.15,12.08-12a7.08,7.08,0,0,0,2.09-5V284.88a7.1,7.1,0,0,0-7.08-7.08Zm28.34,51.35V338a3.56,3.56,0,0,1-3.55,3.55H941.82a3.56,3.56,0,0,1-3.54-3.55v-8.85L952.45,315Zm-14.17-17.71-14.17-14.16v-8.86a3.56,3.56,0,0,1,3.54-3.54h21.25a3.56,3.56,0,0,1,3.55,3.54v8.86Z" transform="translate(-909.95 -270.71)"/>
  </g>
</svg>
