<svg id="Calque_1" data-name="Calque 1" xmlns="http://www.w3.org/2000/svg" viewBox="0 0 86.23 86.23">
  <defs>
    <style>
      .cls-1 {
        fill: none;
      }

      .cls-2 {
        fill: #2de47e;
      }
    </style>
  </defs>
  <g id="people-24px">
    <path id="Tracé_21" data-name="Tracé 21" class="cls-1" d="M638.71,423.47h86.23V509.7H638.71Z" transform="translate(-638.71 -423.47)"/>
    <path id="Tracé_22" data-name="Tracé 22" class="cls-2" d="M671.05,472.88c-8.41,0-25.16,4.2-25.16,12.57v6.29h50.3v-6.29C696.19,477.08,679.45,472.88,671.05,472.88ZM654.3,484.55c3-2.08,10.31-4.49,16.75-4.49s13.72,2.41,16.74,4.49Zm16.75-18A12.58,12.58,0,1,0,658.47,454,12.57,12.57,0,0,0,671.05,466.59Zm0-18a5.39,5.39,0,1,1-5.39,5.39h0a5.38,5.38,0,0,1,5.37-5.39Zm25.3,24.47c4.16,3,7,7,7,12.36v6.29h14.37v-6.29c0-7.26-12.58-11.39-21.42-12.36Zm-3.74-6.5a12.58,12.58,0,1,0,0-25.15h0a12.31,12.31,0,0,0-5.39,1.25,19.63,19.63,0,0,1,0,22.64,12.46,12.46,0,0,0,5.39,1.26Z" transform="translate(-638.71 -423.47)"/>
  </g>
</svg>
